<?xml version="1.0" standalone="no"?>
<!DOCTYPE svg PUBLIC "-//W3C//DTD SVG 20010904//EN"
 "http://www.w3.org/TR/2001/REC-SVG-20010904/DTD/svg10.dtd">
<svg version="1.0" xmlns="http://www.w3.org/2000/svg"
 width="1280.000000pt" height="1174.000000pt" viewBox="0 0 1280.000000 1174.000000"
 preserveAspectRatio="xMidYMid meet">
<metadata>
Created by potrace 1.15, written by Peter Selinger 2001-2017
</metadata>
<g transform="translate(0.000000,1174.000000) scale(0.100000,-0.100000)"
fill="#3f51b5" stroke="none">
<path d="M6315 11724 c-98 -34 -165 -131 -165 -237 0 -37 -4 -56 -10 -52 -6 4
-35 6 -64 6 -190 0 -282 -227 -144 -357 33 -31 58 -44 97 -53 57 -12 86 -8
144 21 l37 18 0 -125 0 -125 -169 0 -168 0 23 47 c31 61 31 116 -1 180 -73
146 -280 155 -366 16 -20 -31 -24 -51 -24 -113 l0 -75 -43 4 c-89 7 -196 -61
-235 -149 -41 -91 -18 -207 52 -278 48 -47 87 -64 161 -70 l65 -4 0 -73 c0
-65 3 -78 30 -117 94 -133 285 -121 358 21 32 65 35 118 7 180 -11 24 -20 45
-20 47 0 2 74 4 165 4 l165 0 -2 -231 -3 -231 -83 -24 c-245 -71 -454 -243
-577 -477 -23 -45 -53 -113 -65 -152 -12 -38 -27 -81 -32 -95 -15 -34 -22
-306 -10 -355 25 -97 54 -188 77 -241 38 -85 125 -211 196 -283 37 -37 55 -61
44 -58 -11 3 -65 18 -120 32 -246 65 -546 178 -794 296 -79 38 -155 69 -169
69 -46 0 -98 -72 -128 -177 -2 -7 -29 -19 -61 -28 -32 -9 -131 -41 -221 -70
-347 -116 -623 -268 -840 -461 l-63 -56 -107 17 c-163 26 -475 31 -651 11
-319 -37 -557 -106 -848 -246 -396 -190 -736 -493 -991 -882 -42 -65 -96 -143
-119 -173 -23 -31 -49 -77 -58 -103 -9 -26 -32 -81 -50 -122 -172 -385 -229
-657 -279 -1345 -14 -187 -32 -377 -41 -422 -30 -160 -111 -396 -185 -543 -17
-33 -30 -65 -30 -73 0 -7 26 -24 58 -37 91 -37 322 -150 322 -158 -1 -4 -23
-17 -50 -30 -107 -50 -199 -169 -215 -277 -10 -61 17 -146 55 -179 58 -48 145
-44 210 11 17 14 46 58 65 97 23 48 45 78 68 94 120 80 341 -66 618 -410 65
-80 123 -149 129 -153 5 -3 10 -32 10 -63 0 -144 146 -314 327 -382 71 -27
167 -29 212 -6 32 17 35 17 89 -5 112 -43 173 -82 228 -142 58 -64 132 -198
159 -287 42 -142 57 -308 31 -346 -8 -12 -20 -42 -27 -68 -21 -83 24 -176 92
-191 16 -4 29 -10 29 -13 0 -4 7 -43 14 -87 8 -44 11 -82 7 -85 -8 -6 -131
-310 -131 -325 0 -5 53 -63 117 -127 l118 -118 15 -78 c14 -71 14 -84 -3 -177
-10 -55 -19 -134 -19 -175 -2 -95 28 -166 103 -245 47 -50 56 -55 95 -55 l44
0 -30 59 c-57 111 -32 206 81 321 398 404 1710 734 3144 790 1761 69 3569
-290 4028 -800 103 -114 120 -210 62 -352 -6 -15 -1 -18 33 -18 36 0 45 6 87
52 26 29 59 75 73 103 23 43 26 62 27 145 0 55 -8 134 -19 187 -17 88 -18 95
-1 170 l17 78 121 115 120 116 -63 159 c-34 88 -67 165 -72 172 -6 7 -4 42 4
94 12 78 15 83 50 107 83 54 106 150 58 245 -23 47 -24 50 -12 146 24 189 82
338 183 471 53 70 105 106 222 155 l67 28 41 -18 c191 -86 539 161 539 382 0
51 2 55 103 180 244 305 426 456 563 470 76 8 114 -19 159 -113 38 -79 76
-118 134 -135 86 -26 161 17 187 107 19 68 13 118 -27 201 -34 71 -105 140
-179 175 -27 13 -49 26 -50 30 0 8 231 121 323 158 31 13 57 30 57 37 0 8 -13
40 -30 73 -74 147 -155 383 -185 543 -9 45 -27 235 -41 422 -50 688 -107 960
-279 1345 -18 41 -41 96 -50 122 -9 26 -35 72 -58 103 -23 30 -77 108 -119
173 -254 387 -590 688 -983 878 -297 143 -533 212 -856 250 -176 20 -488 15
-651 -11 l-107 -17 -63 56 c-217 193 -493 345 -840 461 -90 29 -189 61 -221
70 -32 9 -59 21 -61 28 -30 105 -82 177 -129 177 -13 0 -89 -31 -168 -69 -244
-117 -547 -230 -794 -296 -55 -14 -109 -29 -120 -32 -11 -3 7 21 44 58 137
139 228 317 273 534 12 60 5 310 -10 345 -5 14 -20 57 -32 95 -93 297 -345
543 -642 629 l-83 24 -3 231 -2 231 165 0 c91 0 165 -2 165 -4 0 -2 -10 -25
-21 -51 -17 -37 -20 -61 -16 -101 20 -195 268 -257 382 -96 27 39 30 52 30
117 l0 73 65 4 c74 6 113 23 161 70 70 71 92 188 52 279 -39 87 -147 155 -235
148 l-43 -4 0 75 c0 64 -4 81 -27 116 -89 137 -290 126 -363 -19 -32 -64 -32
-119 -1 -180 l23 -47 -168 0 -169 0 0 125 0 125 38 -18 c57 -29 86 -33 143
-21 39 9 64 22 97 53 138 130 46 357 -144 357 -29 0 -58 -2 -64 -6 -6 -4 -10
12 -10 43 0 180 -169 305 -335 246z m-1343 -3811 c38 -81 40 -88 23 -98 -43
-24 -85 -69 -95 -100 -9 -26 -19 -37 -43 -43 -28 -8 -37 -5 -69 24 -41 36 -88
49 -150 41 -48 -6 -84 -30 -116 -78 -19 -27 -30 -34 -54 -32 -26 1 -47 16 -48
33 0 8 149 123 235 180 96 65 256 160 268 160 4 0 27 -39 49 -87z m3004 34
c153 -91 404 -269 404 -287 -1 -30 -79 -49 -88 -21 -2 6 -16 26 -30 43 -63 75
-182 79 -257 9 -26 -24 -34 -27 -62 -20 -24 7 -34 18 -43 44 -10 31 -52 76
-95 100 -17 10 -15 17 23 98 22 48 45 87 49 87 5 0 49 -24 99 -53z m-2689
-872 c128 -406 302 -1082 434 -1695 79 -365 100 -476 104 -543 1 -37 12 -91
24 -120 21 -53 85 -367 76 -375 -2 -2 -34 7 -70 22 -112 45 -205 30 -251 -39
-13 -20 -16 -41 -12 -103 5 -73 16 -111 89 -307 18 -48 23 -91 29 -212 6 -133
10 -157 31 -199 30 -57 81 -88 149 -88 61 0 124 37 185 108 39 47 85 76 116
76 22 0 -38 -196 -95 -313 -109 -220 -238 -317 -408 -305 -138 10 -284 117
-399 292 -32 49 -59 93 -59 97 0 4 11 10 25 13 35 9 93 62 118 110 30 57 30
155 0 212 -42 80 -116 124 -208 124 -99 0 -168 -44 -211 -135 -28 -58 -30
-115 -9 -176 29 -81 117 -148 199 -151 25 -1 33 -5 27 -12 -5 -6 -21 -46 -35
-89 -68 -203 -182 -352 -321 -418 -146 -70 -310 -15 -476 157 -65 69 -149 176
-149 191 0 4 54 28 121 52 98 35 119 46 114 60 -24 59 -155 431 -155 438 0 4
99 44 220 87 122 43 223 83 226 87 4 8 -203 589 -215 600 -3 4 -107 -31 -231
-76 -155 -57 -227 -79 -232 -71 -13 20 -9 51 18 116 102 251 281 509 542 781
l120 125 -61 39 c-274 173 -507 403 -637 625 -163 279 -202 595 -110 894 l21
68 32 -6 c73 -14 419 -18 529 -7 225 25 452 84 643 169 50 22 94 39 99 38 4
-1 28 -65 53 -141z m2408 90 c142 -59 307 -107 470 -136 108 -19 167 -23 350
-23 121 -1 250 2 287 7 l67 7 21 -67 c92 -298 53 -614 -110 -893 -130 -222
-363 -452 -637 -625 l-61 -39 120 -125 c261 -272 440 -530 542 -781 27 -65 31
-96 18 -116 -5 -8 -77 14 -232 71 -124 45 -228 80 -231 76 -12 -11 -219 -592
-215 -600 3 -4 104 -44 226 -87 121 -43 220 -83 220 -87 0 -7 -131 -379 -155
-438 -5 -13 16 -24 112 -59 65 -24 121 -46 125 -49 10 -8 -90 -138 -160 -209
-149 -152 -304 -205 -443 -153 -139 53 -275 221 -343 422 -14 42 -28 83 -31
90 -4 11 3 15 26 17 111 9 209 117 209 230 0 87 -58 178 -134 213 -49 22 -143
25 -189 6 -48 -21 -95 -64 -120 -111 -30 -57 -30 -155 0 -212 25 -48 83 -101
118 -110 14 -3 25 -11 25 -16 0 -6 -24 -48 -54 -93 -72 -107 -184 -213 -272
-256 -63 -31 -76 -34 -159 -34 -78 0 -97 4 -140 27 -56 29 -132 100 -174 162
-63 91 -133 259 -160 384 -8 37 -7 42 10 42 34 0 66 -22 103 -71 69 -89 157
-130 235 -109 100 27 123 74 131 275 6 119 12 162 29 210 78 209 93 262 95
330 1 55 -3 76 -19 99 -42 63 -140 73 -254 27 -39 -17 -71 -27 -71 -23 0 35
66 334 82 370 13 30 23 83 28 147 24 307 391 1808 576 2354 2 7 10 11 17 8 6
-3 62 -27 122 -52z m-4806 -107 c-23 -81 -60 -311 -74 -469 -8 -96 -18 -331
-21 -524 -6 -379 -15 -516 -44 -640 -39 -168 -125 -370 -212 -497 -21 -32 -41
-64 -44 -72 -4 -11 51 -43 213 -125 208 -105 469 -249 585 -324 54 -34 55 -36
96 -148 23 -63 38 -116 34 -120 -4 -3 -92 -36 -197 -74 -104 -37 -204 -74
-222 -80 l-31 -13 98 -269 c120 -331 117 -321 98 -306 -8 7 -38 17 -66 23 -96
21 -207 -32 -251 -119 -79 -157 33 -341 207 -341 l53 0 -6 -57 c-55 -468 -309
-691 -620 -543 -119 57 -282 210 -300 282 -10 40 15 49 106 36 168 -23 244 5
296 109 22 46 28 72 28 123 0 58 -4 71 -37 121 -21 30 -70 86 -110 125 -123
117 -195 201 -288 340 -211 312 -299 384 -415 339 -98 -37 -132 -123 -120
-302 6 -89 5 -104 -6 -97 -64 38 -219 158 -219 169 0 25 81 246 131 359 47
105 170 331 248 452 l32 51 -55 110 c-397 793 -417 1472 -56 1951 123 164 319
321 513 412 185 87 424 147 589 149 l77 1 -10 -32z m7266 12 c373 -64 717
-265 925 -542 361 -479 341 -1158 -56 -1951 l-55 -110 32 -51 c78 -121 201
-347 248 -452 50 -113 131 -334 131 -359 0 -11 -155 -131 -219 -169 -11 -7
-12 8 -6 97 12 179 -22 265 -120 302 -116 45 -204 -27 -416 -340 -94 -140
-154 -210 -282 -335 -92 -88 -144 -162 -153 -218 -15 -93 44 -219 119 -252 45
-21 120 -25 217 -11 139 20 133 -52 -16 -188 -230 -211 -454 -234 -621 -64
-90 92 -167 285 -187 471 l-7 62 54 0 c174 0 285 184 206 341 -44 87 -155 140
-251 119 -28 -6 -58 -16 -66 -23 -19 -15 -22 -25 98 306 l98 269 -31 13 c-18
6 -117 43 -222 80 -104 38 -193 71 -197 74 -4 4 11 57 34 120 41 112 42 114
96 148 116 75 377 219 585 324 162 82 217 114 213 125 -3 8 -23 40 -44 72 -87
127 -173 329 -212 497 -29 124 -38 261 -44 640 -3 193 -13 428 -21 524 -14
158 -51 388 -74 469 l-10 32 69 0 c37 0 121 -9 185 -20z m-6421 -3765 c42
-115 78 -216 81 -222 3 -9 36 -1 117 28 169 62 152 64 145 -17 -26 -275 -168
-457 -366 -472 -167 -12 -340 92 -494 295 l-47 62 44 41 c86 79 101 199 38
301 -18 28 -31 52 -30 54 18 12 425 151 430 146 4 -3 41 -100 82 -216z m5661
136 c94 -34 176 -63 183 -66 9 -3 6 -11 -9 -26 -57 -57 -76 -176 -40 -254 10
-22 37 -57 60 -78 l43 -38 -58 -75 c-107 -141 -219 -226 -347 -265 -259 -80
-472 113 -504 455 -7 81 -24 79 145 17 81 -29 114 -37 117 -28 86 237 157 433
161 438 2 5 21 2 42 -6 20 -7 114 -41 207 -74z"/>
</g>
</svg>
