<?xml version="1.0" encoding="UTF-8" standalone="no"?>
<svg
   xmlns:dc="http://purl.org/dc/elements/1.1/"
   xmlns:cc="http://creativecommons.org/ns#"
   xmlns:rdf="http://www.w3.org/1999/02/22-rdf-syntax-ns#"
   xmlns:svg="http://www.w3.org/2000/svg"
   xmlns="http://www.w3.org/2000/svg"
   xmlns:sodipodi="http://sodipodi.sourceforge.net/DTD/sodipodi-0.dtd"
   xmlns:inkscape="http://www.inkscape.org/namespaces/inkscape"
   version="1.1"
   id="Layer_1"
   x="0px"
   y="0px"
   width="45px"
   height="45px"
   viewBox="0 0 45 45"
   enable-background="new 0 0 45 45"
   xml:space="preserve"
   sodipodi:docname="pawn_fist.svg"
   inkscape:version="1.0.2 (1.0.2+r75+1)"><metadata
   id="metadata13"><rdf:RDF><cc:Work
       rdf:about=""><dc:format>image/svg+xml</dc:format><dc:type
         rdf:resource="http://purl.org/dc/dcmitype/StillImage" /><dc:title></dc:title></cc:Work></rdf:RDF></metadata><defs
   id="defs11"><clipPath
     clipPathUnits="userSpaceOnUse"
     id="clipPath1220"><rect
       style="opacity:0.999983;fill:#bf3b43;fill-opacity:1;stroke:#000000;stroke-width:1.7;stroke-opacity:1"
       id="rect1222"
       width="101.59465"
       height="84.820694"
       x="-269.60217"
       y="121.78034" /></clipPath></defs><sodipodi:namedview
   pagecolor="#ffffff"
   bordercolor="#666666"
   borderopacity="1"
   objecttolerance="10"
   gridtolerance="10"
   guidetolerance="10"
   inkscape:pageopacity="0"
   inkscape:pageshadow="2"
   inkscape:window-width="1366"
   inkscape:window-height="719"
   id="namedview9"
   showgrid="false"
   inkscape:zoom="6.1416872"
   inkscape:cx="16.793885"
   inkscape:cy="16.113475"
   inkscape:window-x="0"
   inkscape:window-y="25"
   inkscape:window-maximized="1"
   inkscape:current-layer="Layer_1" />


<path
   id="path6792-3-6"
   d="m 26.059844,5.1927077 c -0.111503,-0.0012 -0.2516,0.06917 -0.341437,0.09633 -0.318029,0.09608 -0.645091,0.182281 -0.964065,0.274117 -0.296599,0.08539 -0.569395,0.189261 -0.856953,0.298295 -0.09033,0.03426 -0.280866,0.0763 -0.332885,0.163281 -0.0463,0.07728 0.03579,0.21142 0.06733,0.281559 0.107831,0.238909 0.24125,0.466835 0.351109,0.702594 0.128302,0.275373 0.315063,0.525741 0.428849,0.808962 0.04023,0.100076 0.0888,0.190662 0.140217,0.285653 0.01902,0.03518 0.03899,0.09744 0.07588,0.117534 0.04988,0.02713 0.159065,-0.02321 0.209772,-0.03755 0.178885,-0.05055 0.360274,-0.08845 0.535593,-0.151008 0.251487,-0.08974 0.524519,-0.126869 0.785534,-0.195644 0.350866,-0.09242 0.698885,-0.205245 1.047382,-0.292712 -0.0163,-0.18571 -0.159251,-0.401443 -0.235069,-0.571299 -0.185198,-0.414748 -0.348219,-0.840044 -0.558652,-1.237812 -0.06546,-0.123602 -0.131591,-0.24919 -0.189318,-0.3764 -0.02389,-0.05264 -0.03127,-0.126012 -0.09186,-0.152123 -0.02169,-0.0094 -0.04568,-0.01347 -0.07141,-0.01376 z m -2.988533,1.038454 c -0.03189,2.48e-4 -0.06421,0.0037 -0.09038,0.0037 -0.173365,6.4e-5 -0.338741,0.0309 -0.500999,0.0874 -0.477617,0.166295 -0.917412,0.330042 -1.331914,0.634895 -0.11958,0.08796 -0.245703,0.167631 -0.35706,0.26631 -0.03846,0.03407 -0.106154,0.07411 -0.11158,0.130181 -0.0082,0.08489 0.05915,0.20319 0.09968,0.273746 0.103869,0.180839 0.209879,0.361915 0.325444,0.535592 0.435423,0.654324 0.881125,1.305618 1.317037,1.9638373 h 0.01189 c -0.01175,-0.2740353 -0.07131,-0.5457553 -0.07141,-0.8212463 -3.4e-5,-0.100727 -0.01338,-0.229584 0.03719,-0.321352 0.07233,-0.131193 0.318495,-0.170647 0.450786,-0.212008 0.420976,-0.1316 0.862428,-0.309394 1.297332,-0.383091 l 0.03571,-0.0357 c -0.087,-0.237744 -0.231539,-0.462989 -0.343302,-0.690326 -0.139137,-0.282956 -0.257497,-0.580975 -0.391277,-0.868843 -0.06107,-0.131518 -0.12199,-0.263119 -0.187093,-0.392768 -0.02466,-0.0493 -0.05256,-0.126361 -0.103024,-0.154354 -0.02372,-0.01312 -0.05517,-0.0162 -0.08704,-0.01598 z m -2.896286,1.361294 c -0.148877,0.0052 -0.328848,0.111762 -0.44335,0.153241 -0.422391,0.153019 -0.80977,0.430645 -1.13404,0.739787 -0.12295,0.117224 -0.269588,0.258765 -0.34144,0.41545 -0.07328,0.159774 -0.0044,0.228157 0.06137,0.369336 0.09328,0.200418 0.211845,0.382699 0.328794,0.570929 0.444361,0.7152493 1.000671,1.3400233 1.498913,2.0114433 0.146775,0.197802 0.292741,0.398412 0.479056,0.56274 0.05203,0.0459 0.111115,0.141119 0.179645,0.159568 0.200577,0.05395 0.444365,-0.0258 0.641595,-0.05322 0.385458,-0.05359 0.769419,-0.106403 1.1545,-0.176301 0.173964,-0.03156 0.347452,-0.09659 0.523686,-0.111954 -0.02787,-0.130017 -0.122299,-0.211283 -0.180386,-0.322099 -0.137678,-0.262652 -0.277921,-0.518725 -0.429217,-0.774747 -0.479321,-0.811076 -0.954832,-1.6219373 -1.465069,-2.4142543 -0.169664,-0.26348 -0.341965,-0.524668 -0.51588,-0.785539 -0.06104,-0.09156 -0.143562,-0.268979 -0.242503,-0.320983 -0.03471,-0.01826 -0.07399,-0.02483 -0.115674,-0.02343 z m 7.408652,0.201217 c -0.107964,0.003 -0.215502,0.03747 -0.318005,0.06512 -0.242922,0.06541 -0.484293,0.135258 -0.726025,0.204195 -0.8241,0.234928 -1.646768,0.485717 -2.475622,0.701472 -0.298868,0.07779 -0.597368,0.159885 -0.89266,0.248831 -0.09476,0.02853 -0.257652,0.04834 -0.330659,0.117526 -0.05036,0.04775 -0.03831,0.123824 -0.03831,0.186716 0,0.155835 0.0086,0.31113 0.03793,0.464179 0.03029,0.158451 0.04429,0.3178193 0.07588,0.4760863 0.01152,0.0578 0.0088,0.137379 0.04091,0.188201 0.04127,0.06541 0.192572,0.101495 0.261847,0.136123 0.335103,0.167882 0.720511,0.327849 1.071187,0.432944 0.215784,0.0439 0.435736,0.09002 0.654613,0.113809 0.113427,0.01234 0.230782,0.04139 0.345159,0.01264 0.37063,-0.09317 0.687345,-0.373401 0.964066,-0.62374 0.101999,-0.09228 0.195905,-0.237167 0.321355,-0.29569 -0.07475,0.259548 -0.219428,0.507846 -0.314286,0.761732 -0.03631,0.09685 -0.104415,0.215245 -0.09894,0.321353 0.0072,0.14137 0.148657,0.34731 0.270775,0.412108 0.07236,0.03836 0.169945,0.04095 0.249568,0.05691 0.224592,0.04494 0.463586,0.06785 0.69032,0.09039 v 0.0119 c -0.216737,0.05336 -0.446563,0.04819 -0.666517,0.07288 -0.138539,0.01552 -0.270771,0.06556 -0.404668,0.09038 -0.27851,0.05152 -0.577963,0.09557 -0.845047,0.191549 -0.418589,0.150454 -0.810884,0.422655 -1.178299,0.668744 -0.895994,0.600235 -1.74709,1.336837 -2.302309,2.273289 -0.199216,0.335994 -0.41322,0.726624 -0.470874,1.118791 h -0.03571 c -6.1e-5,0.128303 -0.102473,0.369824 -0.03533,0.485754 0.05436,0.0939 0.317677,0.118392 0.416203,0.121252 0.352261,0.01035 0.710898,0.08403 1.059281,0.13092 l -0.08295,0.226139 -0.277092,0.737925 -0.877032,2.273304 -0.28453,0.785532 -0.120881,0.273746 0.136871,-0.642712 0.248831,-1.106892 0.435541,-2.13047 c -0.116536,0 -0.219322,0.03341 -0.333258,0.04612 -0.228021,0.02557 -0.483024,0.0097 -0.702221,-0.05543 -0.06941,-0.02055 -0.203383,-0.04176 -0.254778,-0.09447 -0.05609,-0.0575 -0.01897,-0.271144 -0.01897,-0.348508 0,-0.373016 0.08241,-0.744355 0.206055,-1.094991 0.358346,-1.016077 1.096401,-1.745805 1.863786,-2.467071 0.232887,-0.218955 0.496715,-0.401081 0.762852,-0.577988 0.131279,-0.0873 0.27589,-0.207004 0.428477,-0.251802 v -0.0119 c -0.308028,0.05721 -0.628668,0.06172 -0.94027,0.0967 -0.345422,0.0388 -0.69037,0.107497 -1.03548,0.151009 -0.189991,0.02395 -0.38077,0.0524 -0.571296,0.07177 -0.116761,0.0119 -0.26206,0.01419 -0.368967,0.06585 -0.481232,0.23257 -0.92751,0.58076 -1.36873,0.876288 l -0.34516,0.230234 c -0.03806,0.0255 -0.09301,0.08605 -0.142825,0.07736 -0.054,-0.0094 -0.112735,-0.07489 -0.154727,-0.107866 -0.111115,-0.08712 -0.220031,-0.17795 -0.333256,-0.262216 -0.441303,-0.328374 -0.86166,-0.683453 -1.297322,-1.016136 -0.125089,-0.09552 -0.242407,-0.19962 -0.368592,-0.291596 -0.06203,-0.04523 -0.100502,-0.09977 -0.178903,-0.117534 -0.0098,0.120314 -0.05013,0.236303 -0.05839,0.357059 -0.02197,0.320606 0.01346,0.672218 0.07327,0.986756 0.06981,0.36706 0.183191,0.746773 0.279326,1.108 0.04027,0.151393 0.117726,0.29184 0.122368,0.45228 h 0.0357 c 0.01766,0.117948 0.07845,0.230899 0.112327,0.345159 0.04663,0.157343 0.07535,0.342661 0.163652,0.485008 0.22183,0.357657 0.580731,0.673104 0.890421,0.953281 0.181411,0.164128 0.366238,0.324612 0.547493,0.489095 0.0572,0.05181 0.183063,0.119441 0.207914,0.194897 0.0267,0.08118 -0.01541,0.208615 -0.01749,0.293835 -0.0076,0.310052 -0.03797,0.632712 -0.08071,0.940266 -0.649621,5.005169 -0.64211,9.853351 -0.619148,11.881232 1.211583,0.559325 2.713411,0.960776 4.135488,0.960776 1.181424,0 3.243987,-0.416499 4.287644,-0.810115 -0.187641,-3.476835 -0.341211,-5.845285 -0.8186,-10.295313 -0.02372,-0.19591 -0.01811,-0.397599 -0.03906,-0.593982 -0.03796,-0.35397 -0.0934,-0.705678 -0.127199,-1.059285 -0.01393,-0.145214 -0.0051,-0.2966 -0.02866,-0.44038 -0.05856,-0.357776 -0.08785,-0.72043 -0.104517,-1.083085 -0.0054,-0.117356 -0.08373,-0.262563 -0.04016,-0.380866 0.02273,-0.06142 0.09123,-0.108908 0.135386,-0.154726 0.09081,-0.09427 0.174215,-0.178977 0.273003,-0.264079 0.216379,-0.186382 0.405173,-0.406964 0.616671,-0.598823 0.18603,-0.16877 0.345296,-0.367193 0.524065,-0.541912 0.543805,-0.531306 1.09498,-1.055937 1.633552,-1.594501 0.212452,-0.212451 0.418831,-0.429662 0.630809,-0.642712 0.08451,-0.08494 0.233875,-0.203353 0.267796,-0.321353 0.03533,-0.122937 -0.04807,-0.271928 -0.09187,-0.380866 -0.06035,-0.149656 -0.09625,-0.320687 -0.141708,-0.476079 -0.221735,-0.759123 -0.484475,-1.501357 -0.742392,-2.2494893 -0.14913,-0.432819 -0.311012,-0.862326 -0.455627,-1.297317 -0.05629,-0.168977 -0.09804,-0.451452 -0.21944,-0.582083 -0.1533,-0.164904 -0.414917,-0.220005 -0.628206,-0.247715 -0.0249,-0.003 -0.04985,-0.0044 -0.07476,-0.0037 z m -9.754469,1.712034 c -0.0229,2.52e-4 -0.04716,0.003 -0.07327,0.0086 -0.258454,0.05514 -0.484092,0.262815 -0.678416,0.429219 -0.217152,0.1859693 -0.402066,0.3952353 -0.573157,0.6237393 -0.100978,0.134867 -0.198081,0.275047 -0.188203,0.45228 0.01231,0.221054 0.286004,0.416883 0.428102,0.559391 0.423486,0.424696 0.865916,0.80517 1.320382,1.19393 0.28996,0.24801 0.580873,0.49098 0.881494,0.724902 0.116999,0.09093 0.24447,0.229473 0.404673,0.193412 0.320983,-0.07214 0.6479,-0.334184 0.893022,-0.542289 0.07274,-0.06172 0.228408,-0.176589 0.221305,-0.28453 -0.0048,-0.07317 -0.05468,-0.111214 -0.09224,-0.167003 -0.101048,-0.150085 -0.218055,-0.28518 -0.325447,-0.429219 -0.413787,-0.555038 -0.817018,-1.120579 -1.23372,-1.677067 -0.209368,-0.279614 -0.41901,-0.556694 -0.633412,-0.8331453 -0.102394,-0.131999 -0.19074,-0.253642 -0.351111,-0.252171 z m 5.092206,1.4542833 c 0.01556,0.106869 0.115515,0.209214 0.174446,0.297553 0.151667,0.22733 0.305556,0.456707 0.467899,0.676557 0.05048,0.06837 0.129129,0.26495 0.216844,0.282667 0.116994,0.02365 0.258081,-0.07044 0.367103,-0.09745 0.340639,-0.08434 0.69959,-0.203671 1.047006,-0.25478 -0.01639,-0.07905 -0.06339,-0.258181 -0.126826,-0.310192 -0.04047,-0.03326 -0.120852,-0.04265 -0.170718,-0.05691 -0.134377,-0.03851 -0.269228,-0.07711 -0.40467,-0.111577 -0.527147,-0.134164 -1.045121,-0.300606 -1.571084,-0.425871 z"
   style="fill:#000000;fill-opacity:1;stroke:#0a0808;stroke-width:0.011902;stroke-opacity:1"
   inkscape:connector-curvature="0"
   sodipodi:nodetypes="sccsccccccccccccccsccccccccccccccccccccsscccccccccccscccsscccccscccccccscccsccccccccccccccccccccccccsccccccccccccccccccscccccccccccscccccccccccsccccccccscccscccccccccccccccccccccc"
   inkscape:export-xdpi="94.972"
   inkscape:export-ydpi="94.972" /><path
   inkscape:connector-curvature="0"
   style="fill:#bf3b43;fill-opacity:1;fill-rule:nonzero;stroke:#000000;stroke-width:1.39002;stroke-linecap:butt;stroke-linejoin:miter;stroke-miterlimit:4;stroke-dasharray:none;stroke-opacity:1"
   d="m -217.55388,71.97216 v 0 c -10.55958,0.2005 -17.37654,8.75509 -17.64388,17.643844 -0.2005,5.413503 2.20548,13.099256 7.68579,16.106756 1.87131,1.0025 0.6015,1.73767 -3.00749,2.47284 -3.00748,0.53466 -4.00997,0.93566 -4.14364,2.27233 -0.2005,2.13859 0.802,2.47275 3.60898,3.20792 1.67083,0.46783 3.00749,0.73517 4.4778,1.33666 -0.40099,7.5521 -0.33415,15.23793 -1.26982,22.79001 -0.6015,4.21051 -2.33915,7.68575 -4.00997,8.88876 -1.60398,1.13617 -3.27481,1.93816 -4.94563,2.87385 -0.13372,0.2005 -0.26734,2.07183 -0.40099,4.21049 -0.46783,5.68076 -2.406,11.56209 -8.01995,13.03242 -5.14614,1.33659 -5.94814,15.30468 -4.94565,17.37651 0,0 15.77257,0.13372 33.21595,0.13372 17.51022,0 33.21594,-0.13372 33.21594,-0.13372 1.06932,-2.07183 0.20049,-16.03992 -4.94563,-17.37651 -5.54713,-1.47033 -7.55212,-7.35166 -7.95311,-13.03242 -0.13372,-2.13866 -0.33418,-4.00999 -0.46783,-4.21049 -1.604,-0.93569 -3.27482,-1.73768 -4.87882,-2.87385 -1.73765,-1.20301 -3.4753,-4.67825 -4.00996,-8.88876 -1.00249,-7.55208 -0.93566,-15.23791 -1.26983,-22.79001 1.47033,-0.60149 2.74016,-0.86883 4.47781,-1.33666 2.74014,-0.73517 3.74264,-1.06933 3.54214,-3.20792 -0.13372,-1.33667 -1.06932,-1.73767 -4.0768,-2.27233 -3.60898,-0.73517 -4.8788,-1.47034 -3.00748,-2.47284 5.41346,-3.0075 7.81944,-10.693253 7.68577,-16.106756 -0.26732,-8.888754 -7.15111,-17.443344 -17.64387,-17.643844 -0.20051,0 -0.46783,0 -0.66833,0 -0.20049,0 -0.401,0 -0.6015,0 z"
   id="path363"
   clip-path="url(#clipPath1220)"
   transform="matrix(0.32476087,0,0,0.26769917,93.28746,-9.6672483)"
   inkscape:export-xdpi="94.972"
   inkscape:export-ydpi="94.972" /><path
   id="path6792-0"
   d="m 25.655842,5.9797897 c -0.09667,-0.001 -0.218123,0.05996 -0.296004,0.08351 -0.275707,0.0833 -0.55925,0.158025 -0.835779,0.237641 -0.257131,0.07402 -0.493626,0.164076 -0.742916,0.258601 -0.07831,0.0297 -0.243496,0.06615 -0.288589,0.141554 -0.04014,0.06699 0.03103,0.183285 0.05837,0.244092 0.09348,0.207122 0.209148,0.404717 0.304387,0.609097 0.111229,0.238734 0.273138,0.45579 0.371783,0.701317 0.03488,0.08676 0.07698,0.165296 0.12156,0.24764 0.0165,0.03045 0.03379,0.08447 0.06578,0.101895 0.04324,0.0235 0.1379,-0.02018 0.181859,-0.0326 0.155082,-0.04383 0.312331,-0.07668 0.464322,-0.13092 0.218024,-0.0778 0.454722,-0.109987 0.681004,-0.169604 0.304179,-0.08012 0.605887,-0.177935 0.908009,-0.253761 -0.01412,-0.161001 -0.13806,-0.348027 -0.203787,-0.495281 -0.160556,-0.359557 -0.301885,-0.72826 -0.484315,-1.073097 -0.05675,-0.107155 -0.114081,-0.216031 -0.164125,-0.326313 -0.02072,-0.04564 -0.02712,-0.109244 -0.07964,-0.131881 -0.0188,-0.0081 -0.0396,-0.01167 -0.06191,-0.01193 z m -2.590853,0.90027 c -0.02764,1.99e-4 -0.05566,0.003 -0.07835,0.003 -0.150297,5.2e-5 -0.293671,0.02683 -0.434336,0.07577 -0.414061,0.144165 -0.795334,0.286127 -1.154679,0.550412 -0.103667,0.07625 -0.213007,0.145325 -0.309544,0.230877 -0.03334,0.02956 -0.09203,0.06423 -0.09673,0.112856 -0.0071,0.07362 0.05129,0.176153 0.08642,0.237315 0.09004,0.156774 0.181948,0.313762 0.282138,0.46432 0.377482,0.567256 0.763874,1.131888 1.14178,1.7025143 h 0.01031 c -0.01019,-0.237566 -0.06182,-0.4731373 -0.06191,-0.7119603 -3e-5,-0.08733 -0.0116,-0.199036 0.03224,-0.278594 0.06271,-0.113735 0.276116,-0.147934 0.390805,-0.183789 0.364959,-0.11409 0.747666,-0.268232 1.124696,-0.332121 l 0.03096,-0.03097 c -0.07542,-0.206102 -0.20073,-0.401377 -0.297621,-0.598454 -0.12062,-0.245305 -0.223232,-0.50367 -0.339208,-0.753233 -0.05294,-0.114015 -0.105756,-0.228105 -0.162194,-0.340503 -0.02138,-0.04272 -0.04557,-0.109551 -0.08931,-0.133816 -0.02056,-0.01138 -0.04783,-0.01404 -0.07546,-0.01382 z m -2.510883,1.180145 c -0.129066,0.0044 -0.285088,0.09689 -0.384354,0.132849 -0.366185,0.132663 -0.702016,0.373341 -0.983135,0.641345 -0.106589,0.101621 -0.233713,0.224328 -0.296006,0.36017 -0.06353,0.138511 -0.0038,0.197795 0.0532,0.320185 0.08086,0.173751 0.183654,0.331774 0.285041,0.4949563 0.385232,0.620081 0.867513,1.161712 1.299454,1.743787 0.127246,0.171475 0.253789,0.345396 0.415309,0.48786 0.0451,0.03976 0.09633,0.122331 0.15574,0.138326 0.173884,0.04679 0.385235,-0.02232 0.556218,-0.04612 0.334167,-0.04642 0.667034,-0.09224 1.000872,-0.152842 0.150818,-0.02735 0.301222,-0.08373 0.454004,-0.09705 -0.02417,-0.112715 -0.106025,-0.183167 -0.156383,-0.279238 -0.119357,-0.227706 -0.240941,-0.449699 -0.372104,-0.671656 -0.415537,-0.703142 -0.827774,-1.4061073 -1.270116,-2.0929893 -0.147084,-0.228416 -0.296457,-0.454852 -0.447229,-0.681006 -0.05291,-0.07938 -0.124459,-0.233191 -0.210233,-0.27827 -0.03009,-0.01582 -0.06414,-0.02151 -0.100282,-0.02032 z m 6.422794,0.174446 c -0.0936,0.0022 -0.186825,0.03252 -0.27569,0.05639 -0.210596,0.05669 -0.419848,0.117261 -0.629413,0.177026 -0.714437,0.20367 -1.427634,0.421081 -2.146195,0.608129 -0.259097,0.06748 -0.517876,0.138606 -0.773873,0.215718 -0.08215,0.02476 -0.223367,0.04191 -0.286661,0.101895 -0.04366,0.04139 -0.03321,0.107341 -0.03321,0.161866 0,0.135095 0.0075,0.269733 0.03289,0.402411 0.02626,0.1373653 0.0384,0.2755283 0.06578,0.4127303 0.01,0.05011 0.0077,0.119101 0.03547,0.163159 0.03579,0.05669 0.166948,0.08799 0.227004,0.118015 0.290513,0.145539 0.624634,0.284219 0.928646,0.375322 0.18707,0.03806 0.377753,0.07804 0.567504,0.09867 0.09833,0.01064 0.200072,0.03592 0.299228,0.01094 0.321311,-0.08077 0.595883,-0.323717 0.835779,-0.540736 0.08843,-0.08 0.169839,-0.205608 0.278594,-0.256348 -0.0648,0.225016 -0.190228,0.440269 -0.272465,0.66037 -0.03149,0.08396 -0.09052,0.186604 -0.08577,0.278595 0.0063,0.12256 0.128876,0.301093 0.234743,0.357266 0.06274,0.03326 0.147331,0.03555 0.216359,0.0493 0.194707,0.03895 0.401896,0.05876 0.598459,0.07835 v 0.01035 c -0.187896,0.04627 -0.387139,0.04176 -0.577823,0.06319 -0.120105,0.01345 -0.23474,0.05684 -0.350821,0.07835 -0.241447,0.04472 -0.501053,0.08285 -0.732596,0.166057 -0.362891,0.130431 -0.702983,0.366416 -1.021505,0.579762 -0.776767,0.520359 -1.514608,1.15894 -1.995945,1.970784 -0.172708,0.291285 -0.358234,0.629926 -0.408217,0.969911 h -0.03095 c -5.4e-5,0.111237 -0.08884,0.320614 -0.03063,0.421119 0.04713,0.08141 0.275404,0.10264 0.360819,0.105117 0.305387,0.009 0.616298,0.07288 0.918324,0.113498 l -0.07191,0.19605 -0.240223,0.639727 -0.760327,1.970791 -0.246668,0.681006 -0.104795,0.237323 0.118658,-0.55719 0.215718,-0.9596 0.377585,-1.846968 c -0.101029,0 -0.190137,0.02897 -0.288913,0.03999 -0.197677,0.02217 -0.418748,0.0084 -0.608778,-0.04804 -0.06018,-0.01781 -0.176318,-0.03622 -0.220874,-0.0819 -0.04863,-0.04982 -0.01645,-0.23506 -0.01645,-0.302128 0,-0.323377 0.07144,-0.645306 0.178639,-0.949282 0.310659,-0.88087 0.950502,-1.513494 1.615773,-2.138778 0.201899,-0.189827 0.430619,-0.347709 0.66134,-0.501083 0.113811,-0.07569 0.239178,-0.179457 0.371458,-0.218298 v -0.01035 c -0.267038,0.04959 -0.545011,0.05351 -0.815146,0.08384 -0.299458,0.03363 -0.598504,0.09319 -0.897693,0.130912 -0.164709,0.02077 -0.330101,0.04546 -0.495275,0.06223 -0.101224,0.01027 -0.227186,0.01227 -0.319867,0.05706 -0.417194,0.201616 -0.804087,0.503478 -1.186594,0.759677 l -0.299232,0.199598 c -0.03299,0.0221 -0.08064,0.0746 -0.123817,0.06704 -0.04682,-0.0081 -0.09774,-0.06489 -0.134139,-0.09351 -0.09633,-0.07553 -0.190752,-0.154275 -0.28891,-0.227329 -0.382581,-0.284678 -0.747001,-0.592505 -1.124689,-0.880922 -0.108444,-0.0828 -0.210151,-0.173057 -0.319544,-0.252792 -0.05378,-0.03917 -0.08713,-0.08649 -0.155095,-0.101895 -0.0085,0.104304 -0.04346,0.204861 -0.05062,0.309549 -0.01904,0.277944 0.01167,0.582763 0.06353,0.855445 0.06052,0.318218 0.158815,0.647405 0.242155,0.960569 0.03492,0.131244 0.10206,0.252999 0.106085,0.392093 h 0.03095 c 0.01531,0.102249 0.06801,0.200174 0.09738,0.299223 0.04043,0.136411 0.06532,0.297065 0.141878,0.420475 0.19231,0.310059 0.503453,0.583532 0.771933,0.826427 0.157269,0.142287 0.317504,0.281418 0.474639,0.424016 0.04959,0.04486 0.158704,0.103543 0.180246,0.168962 0.02315,0.07036 -0.01336,0.180846 -0.01516,0.254728 -0.0066,0.268794 -0.03292,0.54852 -0.06997,0.815141 -0.563178,4.339146 -0.556668,8.542183 -0.536761,10.300221 1.05036,0.484896 2.35234,0.832923 3.585186,0.832923 1.024214,0 2.812314,-0.361072 3.717093,-0.702314 -0.162674,-3.014171 -0.295805,-5.067463 -0.709669,-8.925326 -0.02055,-0.169842 -0.01571,-0.344694 -0.03386,-0.514949 -0.03291,-0.306866 -0.08097,-0.611773 -0.110275,-0.918321 -0.01207,-0.125886 -0.0044,-0.257131 -0.02485,-0.381776 -0.05076,-0.310169 -0.07616,-0.624567 -0.09061,-0.938964 -0.0047,-0.101739 -0.07259,-0.227625 -0.03482,-0.330185 0.01971,-0.05322 0.07909,-0.09441 0.11737,-0.134135 0.07873,-0.08172 0.151034,-0.155162 0.236676,-0.228941 0.187585,-0.161585 0.351258,-0.352809 0.534612,-0.519132 0.161276,-0.146315 0.299348,-0.318329 0.454328,-0.469804 0.471442,-0.460609 0.949274,-0.915423 1.416177,-1.382323 0.184183,-0.18418 0.363101,-0.372491 0.546869,-0.557189 0.07326,-0.07362 0.202755,-0.176294 0.232163,-0.278587 0.03063,-0.106581 -0.04167,-0.235748 -0.07965,-0.330185 -0.05231,-0.129744 -0.08344,-0.278018 -0.122852,-0.412729 -0.192229,-0.658116 -0.420004,-1.301582 -0.643601,-1.950156 -0.129287,-0.3752193 -0.269626,-0.7475783 -0.394997,-1.1246893 -0.0488,-0.146485 -0.085,-0.391369 -0.190241,-0.504624 -0.132899,-0.142959 -0.359705,-0.190728 -0.544611,-0.21475 -0.02159,-0.003 -0.04322,-0.0037 -0.06481,-0.003 z m -8.456456,1.484217 c -0.01986,2e-4 -0.04088,0.003 -0.06352,0.0074 -0.22406,0.04782 -0.419675,0.227847 -0.58814,0.3721083 -0.188257,0.161223 -0.348564,0.342639 -0.496889,0.540737 -0.08754,0.11692 -0.171721,0.238446 -0.163156,0.392093 0.01068,0.191645 0.247945,0.361412 0.371135,0.484963 0.367132,0.368175 0.750688,0.69802 1.14468,1.035049 0.251372,0.215009 0.503577,0.425649 0.764195,0.62844 0.10143,0.07883 0.211938,0.19894 0.350821,0.167676 0.278272,-0.06253 0.561686,-0.289711 0.774191,-0.470129 0.06305,-0.05351 0.198015,-0.153093 0.191856,-0.246672 -0.0042,-0.06342 -0.04741,-0.09641 -0.07997,-0.144778 -0.0876,-0.130107 -0.189038,-0.247227 -0.28214,-0.3721 -0.35872,-0.481188 -0.708295,-0.971473 -1.069549,-1.453915 -0.181507,-0.242408 -0.363252,-0.482613 -0.549124,-0.7222793 -0.08877,-0.114437 -0.165357,-0.219886 -0.304388,-0.218615 z m 4.414596,1.2607613 c 0.01347,0.09265 0.100143,0.181371 0.151232,0.257958 0.131485,0.197078 0.264894,0.395937 0.405637,0.586525 0.04375,0.05928 0.111943,0.229695 0.187987,0.245061 0.101427,0.02047 0.223739,-0.06112 0.318253,-0.08448 0.295311,-0.0731 0.606495,-0.176575 0.907682,-0.220877 -0.01422,-0.06852 -0.05495,-0.223826 -0.10995,-0.26892 -0.03508,-0.02882 -0.104771,-0.03695 -0.148001,-0.0493 -0.116495,-0.03341 -0.2334,-0.06682 -0.350821,-0.09674 -0.457001,-0.116307 -0.906049,-0.260597 -1.362019,-0.369195 z"
   style="fill:#bf3b43;fill-opacity:1;stroke:#0a0808;stroke-width:0.0103183;stroke-opacity:1"
   inkscape:connector-curvature="0"
   sodipodi:nodetypes="sccsccccccccccccccsccccccccccccccccccccsscccccccccccscccsscccccscccccccscccsccccccccccccccccccccccccsccccccccccccccccccscccccccccccscccccccccccsccccccccscccscccccccccccccccccccccc"
   inkscape:export-xdpi="94.972"
   inkscape:export-ydpi="94.972" /><rect
   style="fill:#bf3b43;fill-opacity:1;stroke:none;stroke-width:0.376756;stroke-miterlimit:4;stroke-dasharray:none;stroke-opacity:1"
   id="rect1224"
   width="7.2949491"
   height="4.1532154"
   x="19.17832"
   y="28.138298"
   inkscape:export-xdpi="94.972"
   inkscape:export-ydpi="94.972" /></svg>
